# xmcd CD database file
#
# Track frame offsets:
#	150
#	24012
#	47942
#	77332
#	97955
#	121977
#	145857
#	170072
#	187265
#	209010
#	226395
#	256650
#
# Disc length: 4383 seconds
#
# Revision: 0
# Processed by: cddbd v1.5.1PL0 Copyright (c) Steve Scherf et al.
# Submitted via: CDex 1.51
#
DISCID=9d111d0c
DTITLE=Betsy Braud and the Jazz Nurse Prescription - Just What the Doctor Ordered
DYEAR=2004
DGENRE=Jazz
TTITLE0=Dr. Macumba
TTITLE1=Sure Had a Positive Influence Rave On
TTITLE2=Só
TTITLE3=Nene
TTITLE4=Kinda Monkish
TTITLE5=Bunny Girls Bop
TTITLE6=Tai Chi Cycling
TTITLE7=Gotta Get Hip
TTITLE8=Swing Da cor
TTITLE9=St. Thomas
TTITLE10=Momentos Con Las Margaritas
TTITLE11=Data
EXTD=YEAR: 2004
EXTT0=
EXTT1=
EXTT2=
EXTT3=
EXTT4=
EXTT5=
EXTT6=
EXTT7=
EXTT8=
EXTT9=
EXTT10=
EXTT11=
PLAYORDER=
